# Generated By Simlab Soft 'www.simlab-soft.com' 
mtllib blbw_3030.mtl


g Body_1
usemtl texture1
v 0.762 0 0.64135
v 0.762 0 0
v 0.762 0.1524 0.64135
v 0.762 0.8255 0
v 0.762 0.1524 0.7112
v 0.762 0.8255 0.7112
v 9.33181e-17 0.8255 0.762
v 0 0.8255 0
v 9.33181e-17 0 0.762
v 0 0 0
v 0.7112 0.1524 0.762
v 0.7112 0.8255 0.762
v 0.64135 0.1524 0.762
v 9.33181e-17 0.8255 0.762
v 0.64135 0 0.762
v 9.33181e-17 0 0.762
v 0.7112 0.1524 0.7112
v 0.7112 0.8255 0.7112
v 0.7112 0.1524 0.762
v 0.7112 0.8255 0.762
v 0.762 0.1524 0.7112
v 0.762 0.8255 0.7112
v 0.7112 0.1524 0.7112
v 0.7112 0.8255 0.7112
v 0 0.8255 0
v 0.762 0.8255 0
v 0 0 0
v 0.762 0 0
v 0.762 0.8255 0.7112
v 0.762 0.8255 0
v 0.7112 0.8255 0.7112
v 0 0.8255 0
v 0.7112 0.8255 0.762
v 9.33181e-17 0.8255 0.762
v 0.64135 0 0.762
v 9.33181e-17 0 0.762
v 0.64135 0 0.64135
v 0 0 0
v 0.762 0 0.64135
v 0.762 0 0
v 0.762 0.1524 0.64135
v 0.64135 0.1524 0.64135
v 0.762 0 0.64135
v 0.64135 0 0.64135
v 0.64135 0.1524 0.64135
v 0.64135 0.1524 0.762
v 0.64135 0 0.64135
v 0.64135 0 0.762
v 0.7112 0.1524 0.762
v 0.64135 0.1524 0.762
v 0.7112 0.1524 0.7112
v 0.64135 0.1524 0.64135
v 0.762 0.1524 0.7112
v 0.762 0.1524 0.64135
vn 1 0 -3.12211e-16
vn 1 0 -3.12211e-16
vn 1 0 -3.12211e-16
vn 1 0 -3.12211e-16
vn 1 0 -3.12211e-16
vn 1 0 -3.12211e-16
vn -1 0 1.22465e-16
vn -1 0 1.22465e-16
vn -1 0 1.22465e-16
vn -1 0 1.22465e-16
vn 0 0 1
vn 0 0 1
vn 0 0 1
vn 0 0 1
vn 0 0 1
vn 0 0 1
vn 1 0 0
vn 1 0 0
vn 1 0 0
vn 1 0 0
vn 0 0 1
vn 0 0 1
vn 0 0 1
vn 0 0 1
vn 0 0 -1
vn 0 0 -1
vn 0 0 -1
vn 0 0 -1
vn 0 1 0
vn 0 1 0
vn 0 1 0
vn 0 1 0
vn 0 1 0
vn 0 1 0
vn 0 -1 0
vn 0 -1 0
vn 0 -1 0
vn 0 -1 0
vn 0 -1 0
vn 0 -1 0
vn 0 0 1
vn 0 0 1
vn 0 0 1
vn 0 0 1
vn 1 0 0
vn 1 0 0
vn 1 0 0
vn 1 0 0
vn 0 -1 0
vn 0 -1 0
vn 0 -1 0
vn 0 -1 0
vn 0 -1 0
vn 0 -1 0
vt 0 0.178427
vt 0 0
vt 0.0782742 0.178427
vt 0.423985 0
vt 0.0782742 0.19786
vt 0.423985 0.19786
vt 0 0.211993
vt 0 0
vt 0.423985 0.211993
vt 0.423985 0
vt 0.0782742 0.0141329
vt 0.423985 0.0141329
vt 0.0782742 0.0335655
vt 0.423985 0.211993
vt 0 0.0335655
vt 0 0.211993
vt 0.0782742 0.19786
vt 0.423985 0.19786
vt 0.0782742 0.211993
vt 0.423985 0.211993
vt 0.0782742 0
vt 0.423985 0
vt 0.0782742 0.0141329
vt 0.423985 0.0141329
vt 0 0.211993
vt 0 0
vt 0.423985 0.211993
vt 0.423985 0
vt 0 0.19786
vt 0 0
vt 0.0282657 0.19786
vt 0.423985 0
vt 0.0282657 0.211993
vt 0.423985 0.211993
vt 0.356854 0.211993
vt 4.70718e-17 0.211993
vt 0.356854 0.178427
vt 0 0
vt 0.423985 0.178427
vt 0.423985 0
vt 0.0782742 0
vt 0.0782742 0.0335655
vt 0 0
vt 0 0.0335655
vt 0.0782742 0.178427
vt 0.0782742 0.211993
vt 0 0.178427
vt 0 0.211993
vt 0.39572 0.211993
vt 0.356854 0.211993
vt 0.39572 0.19786
vt 0.356854 0.178427
vt 0.423985 0.19786
vt 0.423985 0.178427
f 1/1/1 2/2/2 3/3/3 
f 2/2/2 4/4/4 3/3/3 
f 3/3/3 4/4/4 5/5/5 
f 4/4/4 6/6/6 5/5/5 
f 7/7/7 8/8/8 9/9/9 
f 8/8/8 10/10/10 9/9/9 
f 11/11/11 12/12/12 13/13/13 
f 12/12/12 14/14/14 13/13/13 
f 13/13/13 14/14/14 15/15/15 
f 14/14/14 16/16/16 15/15/15 
f 17/17/17 18/18/18 19/19/19 
f 18/18/18 20/20/20 19/19/19 
f 21/21/21 22/22/22 23/23/23 
f 22/22/22 24/24/24 23/23/23 
f 25/25/25 26/26/26 27/27/27 
f 26/26/26 28/28/28 27/27/27 
f 29/29/29 30/30/30 31/31/31 
f 30/30/30 32/32/32 31/31/31 
f 31/31/31 32/32/32 33/33/33 
f 32/32/32 34/34/34 33/33/33 
f 35/35/35 36/36/36 37/37/37 
f 36/36/36 38/38/38 37/37/37 
f 37/37/37 38/38/38 39/39/39 
f 38/38/38 40/40/40 39/39/39 
f 41/41/41 42/42/42 43/43/43 
f 42/42/42 44/44/44 43/43/43 
f 45/45/45 46/46/46 47/47/47 
f 46/46/46 48/48/48 47/47/47 
f 49/49/49 50/50/50 51/51/51 
f 50/50/50 52/52/52 51/51/51 
f 51/51/51 52/52/52 53/53/53 
f 52/52/52 54/54/54 53/53/53 


g Body_2
usemtl texture
v 9.33181e-17 0.95885 0.762
v 0 0.95885 0
v 9.33181e-17 0.8255 0.762
v 0 0.8255 0
v 0.0127 0.95885 0.762
v 9.33181e-17 0.95885 0.762
v 0.0127 0.85725 0.762
v 9.33181e-17 0.8255 0.762
v 0.762 0.85725 0.762
v 0.762 0.8255 0.762
v 0.762 0.85725 0.762
v 0.762 0.8255 0.762
v 0.762 0.85725 0.0127
v 0.762 0.8255 0
v 0.762 0.95885 0.0127
v 0.762 0.95885 1.61758e-32
v 0 0.95885 0
v 0.762 0.95885 0
v 0 0.8255 0
v 0.762 0.8255 0
v 0.0127 0.85725 0.762
v 0.762 0.85725 0.762
v 0.0127 0.85725 0.0127
v 0.762 0.85725 0.0127
v 0.762 0.8255 0
v 0.762 0.8255 0.762
v 0 0.8255 0
v 9.33181e-17 0.8255 0.762
v 0.0127 0.95885 0.0127
v 0.0127 0.95885 0.762
v 0.0127 0.85725 0.0127
v 0.0127 0.85725 0.762
v 0.762 0.95885 0.0127
v 0.0127 0.95885 0.0127
v 0.762 0.85725 0.0127
v 0.0127 0.85725 0.0127
v 0.762 0.95885 0.0127
v 0.762 0.95885 0
v 0.0127 0.95885 0.0127
v 0 0.95885 0
v 0.0127 0.95885 0.762
v 9.33181e-17 0.95885 0.762
vn -1 0 1.22465e-16
vn -1 0 1.22465e-16
vn -1 0 1.22465e-16
vn -1 0 1.22465e-16
vn 0 0 1
vn 0 0 1
vn 0 0 1
vn 0 0 1
vn 0 0 1
vn 0 0 1
vn 1 0 -1.45699e-16
vn 1 0 -1.45699e-16
vn 1 0 -1.45699e-16
vn 1 0 -1.45699e-16
vn 1 0 -1.45699e-16
vn 1 0 -1.45699e-16
vn 0 0 -1
vn 0 0 -1
vn 0 0 -1
vn 0 0 -1
vn 0 1 0
vn 0 1 0
vn 0 1 0
vn 0 1 0
vn 0 -1 0
vn 0 -1 0
vn 0 -1 0
vn 0 -1 0
vn 1 0 -2.12992e-16
vn 1 0 -2.12992e-16
vn 1 0 -2.12992e-16
vn 1 0 -2.12992e-16
vn 1.52798e-16 0 1
vn 1.52798e-16 0 1
vn 1.52798e-16 0 1
vn 1.52798e-16 0 1
vn 0 1 0
vn 0 1 0
vn 0 1 0
vn 0 1 0
vn 0 1 0
vn 0 1 0
vt 0.382765 0.765529
vt 0 0.765529
vt 0.382765 0
vt 0 0
vt 0.00637941 0.765529
vt 4.24954e-17 0.765529
vt 0.00637941 0.182269
vt 4.24954e-17 0
vt 0.382765 0.182269
vt 0.382765 0
vt 0 0.182269
vt 0 0
vt 0.376385 0.182269
vt 0.382765 0
vt 0.376385 0.765529
vt 0.382765 0.765529
vt 0.382765 0.765529
vt 0 0.765529
vt 0.382765 0
vt 0 0
vt 0.00637941 0
vt 0.382765 0
vt 0.00637941 0.75277
vt 0.382765 0.75277
vt 0 0.765529
vt 0 0
vt 0.382765 0.765529
vt 0.382765 0
vt 0.376385 0.765529
vt 0 0.765529
vt 0.376385 0.182269
vt 0 0.182269
vt 0.382765 0.765529
vt 0.00637941 0.765529
vt 0.382765 0.182269
vt 0.00637941 0.182269
vt 0.382765 0.75277
vt 0.382765 0.765529
vt 0.00637941 0.75277
vt 0 0.765529
vt 0.00637941 0
vt 4.24954e-17 0
f 55/55/55 56/56/56 57/57/57 
f 56/56/56 58/58/58 57/57/57 
f 59/59/59 60/60/60 61/61/61 
f 60/60/60 62/62/62 61/61/61 
f 61/61/61 62/62/62 63/63/63 
f 62/62/62 64/64/64 63/63/63 
f 65/65/65 66/66/66 67/67/67 
f 66/66/66 68/68/68 67/67/67 
f 67/67/67 68/68/68 69/69/69 
f 68/68/68 70/70/70 69/69/69 
f 71/71/71 72/72/72 73/73/73 
f 72/72/72 74/74/74 73/73/73 
f 75/75/75 76/76/76 77/77/77 
f 76/76/76 78/78/78 77/77/77 
f 79/79/79 80/80/80 81/81/81 
f 80/80/80 82/82/82 81/81/81 
f 83/83/83 84/84/84 85/85/85 
f 84/84/84 86/86/86 85/85/85 
f 87/87/87 88/88/88 89/89/89 
f 88/88/88 90/90/90 89/89/89 
f 91/91/91 92/92/92 93/93/93 
f 92/92/92 94/94/94 93/93/93 
f 93/93/93 94/94/94 95/95/95 
f 94/94/94 96/96/96 95/95/95 
