# Generated By Simlab Soft 'www.simlab-soft.com' 
mtllib blsw_3030.mtl


g Body_1
usemtl texture1
v 9.02075e-17 0.8255 0.7366
v 0 0.8255 0
v 9.02075e-17 0.1524 0.7366
v 0 0.1524 0
v 0.7112 0.8255 0.7366
v 0.7112 0.1524 0.7366
v 0.64135 0.1524 0.7366
v 0.64135 0 0.7366
v 0.06985 0.1524 0.7366
v 0.06985 0 0.7366
v 9.02075e-17 0.8255 0.7366
v 9.02075e-17 0.1524 0.7366
v 0.7366 0.8255 0.7112
v 0.7366 0.8255 0
v 0.7366 0.1524 0.7112
v 0.7366 0.1524 0.64135
v 0.7366 0.1524 0.06985
v 0.7366 0.1524 0
v 0.7366 0 0.64135
v 0.7366 0 0.06985
v 0 0.8255 0
v 0.7366 0.8255 0
v 0 0.1524 0
v 0.7366 0.1524 0
v 0.64135 0 0.7366
v 0.06985 0 0.7366
v 0.64135 0 0.64135
v 0.06985 0 0.06985
v 0.7366 0 0.64135
v 0.7366 0 0.06985
v 0.7112 0.1524 0.7112
v 0.7112 0.8255 0.7112
v 0.7112 0.1524 0.7366
v 0.7112 0.8255 0.7366
v 0.7366 0.1524 0.7112
v 0.7366 0.8255 0.7112
v 0.7112 0.1524 0.7112
v 0.7112 0.8255 0.7112
v 0.7366 0.8255 0.7112
v 0.7366 0.8255 0
v 0.7112 0.8255 0.7112
v 0 0.8255 0
v 0.7112 0.8255 0.7366
v 9.02075e-17 0.8255 0.7366
v 0.64135 0.1524 0.64135
v 0.64135 0.1524 0.7366
v 0.64135 -3.30872e-24 0.64135
v 0.64135 -6.61744e-24 0.7366
v 0.7366 0.1524 0.64135
v 0.64135 0.1524 0.64135
v 0.7366 -6.61744e-24 0.64135
v 0.64135 -3.30872e-24 0.64135
v 0.7112 0.1524 0.7366
v 0.64135 0.1524 0.7366
v 0.7112 0.1524 0.7112
v 0.64135 0.1524 0.64135
v 0.7366 0.1524 0.7112
v 0.7366 0.1524 0.64135
v 0.06985 0.1524 0.06985
v 0.7366 0.1524 0.06985
v 0.06985 -3.30872e-24 0.06985
v 0.7366 -6.61744e-24 0.06985
v 0.06985 0.1524 0.7366
v 0.06985 0.1524 0.06985
v 0.06985 -6.61744e-24 0.7366
v 0.06985 -3.30872e-24 0.06985
v 0.06985 0.1524 0.7366
v 9.02075e-17 0.1524 0.7366
v 0.06985 0.1524 0.06985
v 0 0.1524 0
v 0.7366 0.1524 0.06985
v 0.7366 0.1524 0
vn -1 0 1.22465e-16
vn -1 0 1.22465e-16
vn -1 0 1.22465e-16
vn -1 0 1.22465e-16
vn 0 0 1
vn 0 0 1
vn 0 0 1
vn 0 0 1
vn 0 0 1
vn 0 0 1
vn 0 0 1
vn 0 0 1
vn 1 0 -1.56106e-16
vn 1 0 -1.56106e-16
vn 1 0 -1.56106e-16
vn 1 0 -1.56106e-16
vn 1 0 -1.56106e-16
vn 1 0 -1.56106e-16
vn 1 0 -1.56106e-16
vn 1 0 -1.56106e-16
vn 0 0 -1
vn 0 0 -1
vn 0 0 -1
vn 0 0 -1
vn 0 -1 0
vn 0 -1 0
vn 0 -1 0
vn 0 -1 0
vn 0 -1 0
vn 0 -1 0
vn 1 0 0
vn 1 0 0
vn 1 0 0
vn 1 0 0
vn 0 0 1
vn 0 0 1
vn 0 0 1
vn 0 0 1
vn 0 1 0
vn 0 1 0
vn 0 1 0
vn 0 1 0
vn 0 1 0
vn 0 1 0
vn 1 0 0
vn 1 0 0
vn 1 0 0
vn 1 0 0
vn 0 0 1
vn 0 0 1
vn 0 0 1
vn 0 0 1
vn 0 -1 0
vn 0 -1 0
vn 0 -1 0
vn 0 -1 0
vn 0 -1 0
vn 0 -1 0
vn -4.16282e-17 0 -1
vn -4.16282e-17 0 -1
vn -4.16282e-17 0 -1
vn -4.16282e-17 0 -1
vn -1 0 -1.24884e-16
vn -1 0 -1.24884e-16
vn -1 0 -1.24884e-16
vn -1 0 -1.24884e-16
vn 0 -1 0
vn 0 -1 0
vn 0 -1 0
vn 0 -1 0
vn 0 -1 0
vn 0 -1 0
vt 0 0.211993
vt 0 0
vt 0.345711 0.211993
vt 0.345711 0
vt 0.423985 0.00731009
vt 0.0782742 0.00731009
vt 0.0782742 0.0274129
vt 0 0.0274129
vt 0.0782742 0.19189
vt 0 0.19189
vt 0.423985 0.211993
vt 0.0782742 0.211993
vt 0.423985 0.204683
vt 0.423985 0
vt 0.0782742 0.204683
vt 0.0782742 0.18458
vt 0.0782742 0.0201028
vt 0.0782742 0
vt 0 0.18458
vt 0 0.0201028
vt 0 0.211993
vt 0 0
vt 0.345711 0.211993
vt 0.345711 0
vt 0.36916 0.211993
vt 0.0402055 0.211993
vt 0.36916 0.18458
vt 0.0402055 0.0201028
vt 0.423985 0.18458
vt 0.423985 0.0201028
vt 0.0782742 0.204683
vt 0.423985 0.204683
vt 0.0782742 0.211993
vt 0.423985 0.211993
vt 0.0782742 0
vt 0.423985 0
vt 0.0782742 0.00731009
vt 0.423985 0.00731009
vt 0 0.204683
vt 0 0
vt 0.0146202 0.204683
vt 0.423985 0
vt 0.0146202 0.211993
vt 0.423985 0.211993
vt 0.0782742 0.18458
vt 0.0782742 0.211993
vt 0 0.18458
vt 0 0.211993
vt 0.0782742 0
vt 0.0782742 0.0274129
vt 0 0
vt 0 0.0274129
vt 0.409365 0.211993
vt 0.36916 0.211993
vt 0.409365 0.204683
vt 0.36916 0.18458
vt 0.423985 0.204683
vt 0.423985 0.18458
vt 0.345711 0.19189
vt 0.345711 0
vt 0.423985 0.19189
vt 0.423985 0
vt 0.345711 0.211993
vt 0.345711 0.0201028
vt 0.423985 0.211993
vt 0.423985 0.0201028
vt 0.0402055 0.211993
vt 4.70718e-17 0.211993
vt 0.0402055 0.0201028
vt 0 0
vt 0.423985 0.0201028
vt 0.423985 0
f 1/1/1 2/2/2 3/3/3 
f 2/2/2 4/4/4 3/3/3 
f 7/7/7 6/6/6 5/5/5 
f 11/11/11 12/12/12 9/9/9 
f 10/10/10 8/8/8 9/9/9 
f 8/8/8 7/7/7 9/9/9 
f 9/9/9 7/7/7 11/11/11 
f 7/7/7 5/5/5 11/11/11 
f 17/17/17 18/18/18 14/14/14 
f 13/13/13 15/15/15 16/16/16 
f 19/19/19 20/20/20 16/16/16 
f 20/20/20 17/17/17 16/16/16 
f 16/16/16 17/17/17 13/13/13 
f 17/17/17 14/14/14 13/13/13 
f 21/21/21 22/22/22 23/23/23 
f 22/22/22 24/24/24 23/23/23 
f 25/25/25 26/26/26 27/27/27 
f 26/26/26 28/28/28 27/27/27 
f 27/27/27 28/28/28 29/29/29 
f 28/28/28 30/30/30 29/29/29 
f 31/31/31 32/32/32 33/33/33 
f 32/32/32 34/34/34 33/33/33 
f 35/35/35 36/36/36 37/37/37 
f 36/36/36 38/38/38 37/37/37 
f 39/39/39 40/40/40 41/41/41 
f 40/40/40 42/42/42 41/41/41 
f 41/41/41 42/42/42 43/43/43 
f 42/42/42 44/44/44 43/43/43 
f 45/45/45 46/46/46 47/47/47 
f 46/46/46 48/48/48 47/47/47 
f 49/49/49 50/50/50 51/51/51 
f 50/50/50 52/52/52 51/51/51 
f 53/53/53 54/54/54 55/55/55 
f 54/54/54 56/56/56 55/55/55 
f 55/55/55 56/56/56 57/57/57 
f 56/56/56 58/58/58 57/57/57 
f 59/59/59 60/60/60 61/61/61 
f 60/60/60 62/62/62 61/61/61 
f 63/63/63 64/64/64 65/65/65 
f 64/64/64 66/66/66 65/65/65 
f 67/67/67 68/68/68 69/69/69 
f 68/68/68 70/70/70 69/69/69 
f 69/69/69 70/70/70 71/71/71 
f 70/70/70 72/72/72 71/71/71 


g Body_2
usemtl texture
v -0.0254 0.85725 0.7366
v -0.0254 0.85725 -0.0254
v -0.0254 0.8255 0.7366
v -0.0254 0.8255 -0.0254
v 0.7366 0.85725 0.7366
v -0.0254 0.85725 0.7366
v 0.7366 0.8255 0.7366
v -0.0254 0.8255 0.7366
v 0.7366 0.85725 -0.0254
v 0.7366 0.85725 0.7366
v 0.7366 0.8255 -0.0254
v 0.7366 0.8255 0.7366
v -0.0254 0.85725 -0.0254
v 0.7366 0.85725 -0.0254
v -0.0254 0.8255 -0.0254
v 0.7366 0.8255 -0.0254
v 0.7366 0.85725 0.7366
v 0.7366 0.85725 -0.0254
v -0.0254 0.85725 0.7366
v -0.0254 0.85725 -0.0254
v 0.7366 0.8255 -0.0254
v 0.7366 0.8255 0.7366
v -0.0254 0.8255 -0.0254
v -0.0254 0.8255 0.7366
vn -1 0 1.1838e-16
vn -1 0 1.1838e-16
vn -1 0 1.1838e-16
vn -1 0 1.1838e-16
vn 0 0 1
vn 0 0 1
vn 0 0 1
vn 0 0 1
vn 1 0 -1.45699e-16
vn 1 0 -1.45699e-16
vn 1 0 -1.45699e-16
vn 1 0 -1.45699e-16
vn 0 0 -1
vn 0 0 -1
vn 0 0 -1
vn 0 0 -1
vn 0 1 0
vn 0 1 0
vn 0 1 0
vn 0 1 0
vn 0 -1 0
vn 0 -1 0
vn 0 -1 0
vn 0 -1 0
vt 0.656168 1.31234
vt 0 1.31234
vt 0.656168 0
vt 0 0
vt 0.656168 1.31234
vt 0 1.31234
vt 0.656168 0
vt 0 0
vt 0.656168 1.31234
vt 3.64246e-17 1.31234
vt 0.656168 0
vt 3.64246e-17 0
vt 0.656168 1.31234
vt 3.64246e-17 1.31234
vt 0.656168 0
vt 3.64246e-17 0
vt 0.656168 7.28493e-17
vt 0.656168 1.31234
vt 0 7.28493e-17
vt 0 1.31234
vt 3.64246e-17 1.31234
vt 3.64246e-17 7.28493e-17
vt 0.656168 1.31234
vt 0.656168 7.28493e-17
f 73/73/73 74/74/74 75/75/75 
f 74/74/74 76/76/76 75/75/75 
f 77/77/77 78/78/78 79/79/79 
f 78/78/78 80/80/80 79/79/79 
f 81/81/81 82/82/82 83/83/83 
f 82/82/82 84/84/84 83/83/83 
f 85/85/85 86/86/86 87/87/87 
f 86/86/86 88/88/88 87/87/87 
f 89/89/89 90/90/90 91/91/91 
f 90/90/90 92/92/92 91/91/91 
f 93/93/93 94/94/94 95/95/95 
f 94/94/94 96/96/96 95/95/95 
