# Generated By Simlab Soft 'www.simlab-soft.com' 
mtllib blsz_2424.mtl


g Body_1
usemtl texture
v 7.46545e-17 0.85725 0.5842
v 0 0.85725 -0.0254
v 7.46545e-17 0.8255 0.5842
v 0 0.8255 -0.0254
v 0.6096 0.85725 0.5842
v 7.46545e-17 0.85725 0.5842
v 0.6096 0.8255 0.5842
v 7.46545e-17 0.8255 0.5842
v 0.6096 0.85725 -0.0254
v 0.6096 0.85725 0.5842
v 0.6096 0.8255 -0.0254
v 0.6096 0.8255 0.5842
v 0 0.85725 -0.0254
v 0.6096 0.85725 -0.0254
v 0 0.8255 -0.0254
v 0.6096 0.8255 -0.0254
v 0.6096 0.85725 0.5842
v 0.6096 0.85725 -0.0254
v 7.46545e-17 0.85725 0.5842
v 0 0.85725 -0.0254
v 0.6096 0.8255 -0.0254
v 0.6096 0.8255 0.5842
v 0 0.8255 -0.0254
v 7.46545e-17 0.8255 0.5842
vn -1 0 1.22465e-16
vn -1 0 1.22465e-16
vn -1 0 1.22465e-16
vn -1 0 1.22465e-16
vn 0 0 1
vn 0 0 1
vn 0 0 1
vn 0 0 1
vn 1 0 0
vn 1 0 0
vn 1 0 0
vn 1 0 0
vn -2.67493e-16 0 -1
vn -2.67493e-16 0 -1
vn -2.67493e-16 0 -1
vn -2.67493e-16 0 -1
vn 0 1 0
vn 0 1 0
vn 0 1 0
vn 0 1 0
vn 0 -1 0
vn 0 -1 0
vn 0 -1 0
vn 0 -1 0
vt 0.656168 1.31234
vt 0 1.31234
vt 0.656168 0
vt 0 0
vt 0.656168 1.31234
vt 7.28493e-17 1.31234
vt 0.656168 0
vt 7.28493e-17 0
vt 0.656168 1.31234
vt 0 1.31234
vt 0.656168 0
vt 0 0
vt 0.656168 1.31234
vt 0 1.31234
vt 0.656168 0
vt 0 0
vt 0.656168 1.31234
vt 0 1.31234
vt 0.656168 1.45699e-16
vt 0 0
vt 0.656168 1.31234
vt 0 1.31234
vt 0.656168 0
vt 0 1.45699e-16
f 1/1/1 2/2/2 3/3/3 
f 2/2/2 4/4/4 3/3/3 
f 5/5/5 6/6/6 7/7/7 
f 6/6/6 8/8/8 7/7/7 
f 9/9/9 10/10/10 11/11/11 
f 10/10/10 12/12/12 11/11/11 
f 13/13/13 14/14/14 15/15/15 
f 14/14/14 16/16/16 15/15/15 
f 17/17/17 18/18/18 19/19/19 
f 18/18/18 20/20/20 19/19/19 
f 21/21/21 22/22/22 23/23/23 
f 22/22/22 24/24/24 23/23/23 


g Body_2
usemtl texture1
v 0.01905 0.1524 0.5588
v 2.22045e-16 0.1524 0.5588
v 0.01905 0.1524 0.508
v 2.22045e-16 0.1524 0.508
v 0.01905 0.1524 0.508
v 0 0.1524 0.508
v 0.01905 0 0.508
v 0 0 0.508
v 0.6096 0.8255 0.5588
v 0.6096 0.8255 0
v 0 0.8255 0.5588
v 0 0.8255 0
v 0.59055 0.1524 0.5588
v 0.6096 0.1524 0.5588
v 0.59055 0.80645 0.5588
v 0.6096 0.8255 0.5588
v 0.01905 0.80645 0.5588
v 0 0.8255 0.5588
v 0.01905 0.1524 0.5588
v 0 0.1524 0.5588
v 0.59055 0.1524 0.508
v 0.6096 0.1524 0.508
v 0.59055 0.1524 0.5588
v 0.6096 0.1524 0.5588
v 0.59055 0 0.508
v 0.6096 0 0.508
v 0.59055 0.1524 0.508
v 0.6096 0.1524 0.508
v 0.01905 0 0.508
v 2.22045e-16 0 0.508
v 0.01905 -2.95309e-33 0.06985
v 2.22045e-16 -3.08149e-33 0.0508
v 0.59055 -2.95309e-33 0.06985
v 0.6096 -3.08149e-33 0.0508
v 0.59055 0 0.508
v 0.6096 0 0.508
v 0.6096 0.1524 0.0508
v 0.6096 0 0.0508
v 2.22045e-16 0.1524 0.0508
v 2.22045e-16 0 0.0508
v 0.6096 0.1524 0
v 0.6096 0.1524 0.0508
v 2.22045e-16 0.1524 0
v 2.22045e-16 0.1524 0.0508
v 0.6096 0.8255 0
v 0.6096 0.1524 0
v 0 0.8255 0
v 0 0.1524 0
v 0.6096 0.8255 0.5588
v 0.6096 0.8255 0
v 0.6096 0.1524 0.5588
v 0.6096 0.1524 0.508
v 0.6096 0.1524 0.0508
v 0.6096 0.1524 0
v 0.6096 0 0.508
v 0.6096 -3.08149e-33 0.0508
v 0 0.8255 0.5588
v 0 0.8255 0
v 0 0.1524 0.5588
v 0 0.1524 0.508
v 0 0.1524 0.0508
v 0 0.1524 0
v 0 0 0.508
v 0 -3.08149e-33 0.0508
v 0.01905 0.80645 0.5588
v 0.01905 0.80645 0.01905
v 0.01905 0.17145 0.06985
v 0.01905 0.17145 0.01905
v 0.01905 0.1524 0.5588
v 0.01905 0.1524 0.508
v 0.01905 0 0.508
v 0.01905 -2.95309e-33 0.06985
v 0.59055 0.80645 0.5588
v 0.59055 0.80645 0.01905
v 0.59055 0.17145 0.06985
v 0.59055 0.17145 0.01905
v 0.59055 0.1524 0.5588
v 0.59055 0.1524 0.508
v 0.59055 0 0.508
v 0.59055 0 0.06985
v 0.59055 0.80645 0.01905
v 0.59055 0.80645 0.5588
v 0.01905 0.80645 0.01905
v 0.01905 0.80645 0.5588
v 0.01905 0 0.06985
v 0.59055 0 0.06985
v 0.01905 0.17145 0.06985
v 0.59055 0.17145 0.06985
v 0.01905 0.17145 0.06985
v 0.59055 0.17145 0.06985
v 0.01905 0.17145 0.01905
v 0.59055 0.17145 0.01905
v 0.59055 0.17145 0.01905
v 0.59055 0.80645 0.01905
v 0.01905 0.17145 0.01905
v 0.01905 0.80645 0.01905
vn 0 -1 0
vn 0 -1 0
vn 0 -1 0
vn 0 -1 0
vn 0 0 1
vn 0 0 1
vn 0 0 1
vn 0 0 1
vn 0 1 1.9868e-16
vn 0 1 1.9868e-16
vn 0 1 1.9868e-16
vn 0 1 1.9868e-16
vn 0 0 1
vn 0 0 1
vn 0 0 1
vn 0 0 1
vn 0 0 1
vn 0 0 1
vn 0 0 1
vn 0 0 1
vn 0 -1 0
vn 0 -1 0
vn 0 -1 0
vn 0 -1 0
vn 0 0 1
vn 0 0 1
vn 0 0 1
vn 0 0 1
vn 0 -1 6.73991e-33
vn 0 -1 6.73991e-33
vn 0 -1 6.73991e-33
vn 0 -1 6.73991e-33
vn 0 -1 6.73991e-33
vn 0 -1 6.73991e-33
vn 0 -1 6.73991e-33
vn 0 -1 6.73991e-33
vn 0 1.82123e-16 -1
vn 0 1.82123e-16 -1
vn 0 1.82123e-16 -1
vn 0 1.82123e-16 -1
vn 0 -1 2.18548e-15
vn 0 -1 2.18548e-15
vn 0 -1 2.18548e-15
vn 0 -1 2.18548e-15
vn 0 0 -1
vn 0 0 -1
vn 0 0 -1
vn 0 0 -1
vn 1 0 0
vn 1 0 0
vn 1 0 0
vn 1 0 0
vn 1 0 0
vn 1 0 0
vn 1 0 0
vn 1 0 0
vn -1 0 0
vn -1 0 0
vn -1 0 0
vn -1 0 0
vn -1 0 0
vn -1 0 0
vn -1 0 0
vn -1 0 0
vn 1 0 0
vn 1 0 0
vn 1 0 0
vn 1 0 0
vn 1 0 0
vn 1 0 0
vn 1 0 0
vn 1 0 0
vn -1 0 0
vn -1 0 0
vn -1 0 0
vn -1 0 0
vn -1 0 0
vn -1 0 0
vn -1 0 0
vn -1 0 0
vn -3.88529e-16 -1 0
vn -3.88529e-16 -1 0
vn -3.88529e-16 -1 0
vn -3.88529e-16 -1 0
vn 0 -1.82123e-16 1
vn 0 -1.82123e-16 1
vn 0 -1.82123e-16 1
vn 0 -1.82123e-16 1
vn 0 1 0
vn 0 1 0
vn 0 1 0
vn 0 1 0
vn 0 0 1
vn 0 0 1
vn 0 0 1
vn 0 0 1
vt 0.0132495 0.211993
vt 1.64751e-16 0.211993
vt 0.0132495 0.192721
vt 1.64751e-16 0.192721
vt 0.0782742 0.205368
vt 0.0782742 0.211993
vt 0 0.205368
vt 0 0.211993
vt 0 0.211993
vt 0 0
vt 0.423985 0.211993
vt 0.423985 0
vt 0.0782742 0.00662477
vt 0.0782742 0
vt 0.414201 0.00662477
vt 0.423985 0
vt 0.414201 0.205368
vt 0.423985 0.211993
vt 0.0782742 0.205368
vt 0.0782742 0.211993
vt 0.410736 0.192721
vt 0.423985 0.192721
vt 0.410736 0.211993
vt 0.423985 0.211993
vt 0 0.00662477
vt 0 0
vt 0.0782742 0.00662477
vt 0.0782742 0
vt 0.0132495 0.192721
vt 1.64751e-16 0.192721
vt 0.0132495 0.0264991
vt 1.64751e-16 0.0192721
vt 0.410736 0.0264991
vt 0.423985 0.0192721
vt 0.410736 0.192721
vt 0.423985 0.192721
vt 0.345711 0
vt 0.423985 0
vt 0.345711 0.211993
vt 0.423985 0.211993
vt 0.423985 0
vt 0.423985 0.0192721
vt 1.64751e-16 0
vt 1.64751e-16 0.0192721
vt 0 0
vt 0.345711 0
vt 0 0.211993
vt 0.345711 0.211993
vt 0.423985 0.211993
vt 0.423985 0
vt 0.0782742 0.211993
vt 0.0782742 0.192721
vt 0.0782742 0.0192721
vt 0.0782742 0
vt 0 0.192721
vt 0 0.0192721
vt 0 0.211993
vt 0 0
vt 0.345711 0.211993
vt 0.345711 0.192721
vt 0.345711 0.0192721
vt 0.345711 0
vt 0.423985 0.192721
vt 0.423985 0.0192721
vt 0.414201 0.211993
vt 0.414201 0.00722702
vt 0.0880585 0.0264991
vt 0.0880585 0.00722702
vt 0.0782742 0.211993
vt 0.0782742 0.192721
vt 0 0.192721
vt 0 0.0264991
vt 0.00978428 0.211993
vt 0.00978428 0.00722702
vt 0.335927 0.0264991
vt 0.335927 0.00722702
vt 0.345711 0.211993
vt 0.345711 0.192721
vt 0.423985 0.192721
vt 0.423985 0.0264991
vt 0.410736 0.00722702
vt 0.410736 0.211993
vt 0.0132495 0.00722702
vt 0.0132495 0.211993
vt 0 0.205368
vt 0 0.00662477
vt 0.0880585 0.205368
vt 0.0880585 0.00662477
vt 0.410736 0.0264991
vt 0.0132495 0.0264991
vt 0.410736 0.00722702
vt 0.0132495 0.00722702
vt 0.0880585 0.00662477
vt 0.414201 0.00662477
vt 0.0880585 0.205368
vt 0.414201 0.205368
f 25/25/25 26/26/26 27/27/27 
f 26/26/26 28/28/28 27/27/27 
f 29/29/29 30/30/30 31/31/31 
f 30/30/30 32/32/32 31/31/31 
f 33/33/33 34/34/34 35/35/35 
f 34/34/34 36/36/36 35/35/35 
f 37/37/37 38/38/38 39/39/39 
f 38/38/38 40/40/40 39/39/39 
f 39/39/39 40/40/40 41/41/41 
f 40/40/40 42/42/42 41/41/41 
f 41/41/41 42/42/42 43/43/43 
f 42/42/42 44/44/44 43/43/43 
f 45/45/45 46/46/46 47/47/47 
f 46/46/46 48/48/48 47/47/47 
f 49/49/49 50/50/50 51/51/51 
f 50/50/50 52/52/52 51/51/51 
f 53/53/53 54/54/54 55/55/55 
f 54/54/54 56/56/56 55/55/55 
f 55/55/55 56/56/56 57/57/57 
f 56/56/56 58/58/58 57/57/57 
f 57/57/57 58/58/58 59/59/59 
f 58/58/58 60/60/60 59/59/59 
f 61/61/61 62/62/62 63/63/63 
f 62/62/62 64/64/64 63/63/63 
f 65/65/65 66/66/66 67/67/67 
f 66/66/66 68/68/68 67/67/67 
f 69/69/69 70/70/70 71/71/71 
f 70/70/70 72/72/72 71/71/71 
f 77/77/77 78/78/78 74/74/74 
f 73/73/73 75/75/75 76/76/76 
f 79/79/79 80/80/80 76/76/76 
f 80/80/80 77/77/77 76/76/76 
f 76/76/76 77/77/77 73/73/73 
f 77/77/77 74/74/74 73/73/73 
f 82/82/82 86/86/86 81/81/81 
f 86/86/86 85/85/85 81/81/81 
f 83/83/83 81/81/81 84/84/84 
f 81/81/81 85/85/85 84/84/84 
f 84/84/84 85/85/85 87/87/87 
f 85/85/85 88/88/88 87/87/87 
f 91/91/91 92/92/92 90/90/90 
f 89/89/89 93/93/93 94/94/94 
f 95/95/95 96/96/96 94/94/94 
f 96/96/96 91/91/91 94/94/94 
f 94/94/94 91/91/91 89/89/89 
f 91/91/91 90/90/90 89/89/89 
f 98/98/98 100/100/100 97/97/97 
f 100/100/100 99/99/99 97/97/97 
f 101/101/101 97/97/97 102/102/102 
f 97/97/97 99/99/99 102/102/102 
f 102/102/102 99/99/99 103/103/103 
f 99/99/99 104/104/104 103/103/103 
f 105/105/105 106/106/106 107/107/107 
f 106/106/106 108/108/108 107/107/107 
f 109/109/109 110/110/110 111/111/111 
f 110/110/110 112/112/112 111/111/111 
f 113/113/113 114/114/114 115/115/115 
f 114/114/114 116/116/116 115/115/115 
f 117/117/117 118/118/118 119/119/119 
f 118/118/118 120/120/120 119/119/119 
