# Generated By Simlab Soft 'www.simlab-soft.com' 
mtllib blso_1224.mtl


g Body_1
usemtl texture
v 7.46545e-17 0.85725 0.5842
v 0 0.85725 -0.0254
v 7.46545e-17 0.8255 0.5842
v 0 0.8255 -0.0254
v 0.3048 0.85725 0.5842
v 7.46545e-17 0.85725 0.5842
v 0.3048 0.8255 0.5842
v 7.46545e-17 0.8255 0.5842
v 0.3048 0.85725 -0.0254
v 0.3048 0.85725 0.5842
v 0.3048 0.8255 -0.0254
v 0.3048 0.8255 0.5842
v 0 0.85725 -0.0254
v 0.3048 0.85725 -0.0254
v 0 0.8255 -0.0254
v 0.3048 0.8255 -0.0254
v 0.3048 0.85725 0.5842
v 0.3048 0.85725 -0.0254
v 7.46545e-17 0.85725 0.5842
v 0 0.85725 -0.0254
v 0.3048 0.8255 -0.0254
v 0.3048 0.8255 0.5842
v 0 0.8255 -0.0254
v 7.46545e-17 0.8255 0.5842
vn -1 0 1.22465e-16
vn -1 0 1.22465e-16
vn -1 0 1.22465e-16
vn -1 0 1.22465e-16
vn 0 0 1
vn 0 0 1
vn 0 0 1
vn 0 0 1
vn 1 0 0
vn 1 0 0
vn 1 0 0
vn 1 0 0
vn -4.2116e-16 0 -1
vn -4.2116e-16 0 -1
vn -4.2116e-16 0 -1
vn -4.2116e-16 0 -1
vn 0 1 0
vn 0 1 0
vn 0 1 0
vn 0 1 0
vn 0 -1 0
vn 0 -1 0
vn 0 -1 0
vn 0 -1 0
vt 0.656168 1.31234
vt 0 1.31234
vt 0.656168 0
vt 0 0
vt 0.656168 1.31234
vt 1.45699e-16 1.31234
vt 0.656168 0
vt 1.45699e-16 0
vt 0.656168 1.31234
vt 0 1.31234
vt 0.656168 0
vt 0 0
vt 0.656168 1.31234
vt 0 1.31234
vt 0.656168 0
vt 0 0
vt 0.656168 1.31234
vt 0 1.31234
vt 0.656168 2.91397e-16
vt 0 0
vt 0.656168 1.31234
vt 0 1.31234
vt 0.656168 0
vt 0 2.91397e-16
f 1/1/1 2/2/2 3/3/3 
f 2/2/2 4/4/4 3/3/3 
f 5/5/5 6/6/6 7/7/7 
f 6/6/6 8/8/8 7/7/7 
f 9/9/9 10/10/10 11/11/11 
f 10/10/10 12/12/12 11/11/11 
f 13/13/13 14/14/14 15/15/15 
f 14/14/14 16/16/16 15/15/15 
f 17/17/17 18/18/18 19/19/19 
f 18/18/18 20/20/20 19/19/19 
f 21/21/21 22/22/22 23/23/23 
f 22/22/22 24/24/24 23/23/23 


g Body_2
usemtl texture1
v 0.01905 0.498475 0.01905
v 0.01905 0.80645 0.01905
v 0.01905 0.498475 0.55245
v 0.01905 0.80645 0.5588
v 0.01905 0.479425 0.55245
v 0.01905 0.17145 0.5588
v 0.01905 0.479425 0.01905
v 0.01905 0.17145 0.01905
v 0.28575 0.479425 0.01905
v 0.28575 0.17145 0.01905
v 0.28575 0.479425 0.55245
v 0.28575 0.17145 0.5588
v 0.28575 0.498475 0.55245
v 0.28575 0.80645 0.5588
v 0.28575 0.498475 0.01905
v 0.28575 0.80645 0.01905
v 0.01905 0.479425 0.01905
v 0.01905 0.17145 0.01905
v 0.28575 0.479425 0.01905
v 0.28575 0.17145 0.01905
v 0.28575 0.498475 0.01905
v 0.28575 0.80645 0.01905
v 0.01905 0.498475 0.01905
v 0.01905 0.80645 0.01905
v 0.3048 0.8255 0.5588
v 0.3048 0.8255 0
v 0 0.8255 0.5588
v 0 0.8255 0
v 0.3048 0.8255 0.5588
v 0.3048 0.1524 0.5588
v 0.28575 0.80645 0.5588
v 0.28575 0.17145 0.5588
v 0.01905 0.80645 0.5588
v 0.01905 0.17145 0.5588
v 0 0.8255 0.5588
v 0 0.1524 0.5588
v 0.3048 0.1524 0.508
v 0.3048 0.1524 0.5588
v 1.11022e-16 0.1524 0.508
v 1.11022e-16 0.1524 0.5588
v 0.3048 0 0.508
v 0.3048 0.1524 0.508
v 0 0 0.508
v 0 0.1524 0.508
v 0.3048 -3.08149e-33 0.0508
v 0.3048 0 0.508
v 1.11022e-16 -3.08149e-33 0.0508
v 1.11022e-16 0 0.508
v 0.3048 0.1524 0.0508
v 0.3048 0 0.0508
v 1.11022e-16 0.1524 0.0508
v 1.11022e-16 0 0.0508
v 0.3048 0.1524 0
v 0.3048 0.1524 0.0508
v 1.11022e-16 0.1524 0
v 1.11022e-16 0.1524 0.0508
v 0.3048 0.8255 0
v 0.3048 0.1524 0
v 0 0.8255 0
v 0 0.1524 0
v 0.3048 0.8255 0.5588
v 0.3048 0.8255 0
v 0.3048 0.1524 0.5588
v 0.3048 0.1524 0.508
v 0.3048 0.1524 0.0508
v 0.3048 0.1524 0
v 0.3048 0 0.508
v 0.3048 -3.08149e-33 0.0508
v 0 0.8255 0.5588
v 0 0.8255 0
v 0 0.1524 0.5588
v 0 0.1524 0.508
v 0 0.1524 0.0508
v 0 0.1524 0
v 0 0 0.508
v 0 -3.08149e-33 0.0508
v 0.28575 0.80645 0.5588
v 0.01905 0.80645 0.5588
v 0.28575 0.80645 0.01905
v 0.01905 0.80645 0.01905
v 0.01905 0.17145 0.5588
v 0.28575 0.17145 0.5588
v 0.01905 0.17145 0.01905
v 0.28575 0.17145 0.01905
v 0.01905 0.498475 0.55245
v 0.01905 0.479425 0.55245
v 0.28575 0.498475 0.55245
v 0.28575 0.479425 0.55245
v 0.01905 0.479425 0.55245
v 0.01905 0.479425 0.01905
v 0.28575 0.479425 0.55245
v 0.28575 0.479425 0.01905
v 0.01905 0.498475 0.01905
v 0.01905 0.498475 0.55245
v 0.28575 0.498475 0.01905
v 0.28575 0.498475 0.55245
vn 1 0 0
vn 1 0 0
vn 1 0 0
vn 1 0 0
vn 1 0 0
vn 1 0 0
vn 1 0 0
vn 1 0 0
vn -1 0 0
vn -1 0 0
vn -1 0 0
vn -1 0 0
vn -1 0 0
vn -1 0 0
vn -1 0 0
vn -1 0 0
vn 0 0 1
vn 0 0 1
vn 0 0 1
vn 0 0 1
vn 0 0 1
vn 0 0 1
vn 0 0 1
vn 0 0 1
vn 0 1 1.9868e-16
vn 0 1 1.9868e-16
vn 0 1 1.9868e-16
vn 0 1 1.9868e-16
vn 0 0 1
vn 0 0 1
vn 0 0 1
vn 0 0 1
vn 0 0 1
vn 0 0 1
vn 0 0 1
vn 0 0 1
vn 0 -1 0
vn 0 -1 0
vn 0 -1 0
vn 0 -1 0
vn 0 0 1
vn 0 0 1
vn 0 0 1
vn 0 0 1
vn 0 -1 6.73991e-33
vn 0 -1 6.73991e-33
vn 0 -1 6.73991e-33
vn 0 -1 6.73991e-33
vn 0 1.82123e-16 -1
vn 0 1.82123e-16 -1
vn 0 1.82123e-16 -1
vn 0 1.82123e-16 -1
vn 0 -1 2.18548e-15
vn 0 -1 2.18548e-15
vn 0 -1 2.18548e-15
vn 0 -1 2.18548e-15
vn 0 0 -1
vn 0 0 -1
vn 0 0 -1
vn 0 0 -1
vn 1 0 0
vn 1 0 0
vn 1 0 0
vn 1 0 0
vn 1 0 0
vn 1 0 0
vn 1 0 0
vn 1 0 0
vn -1 0 0
vn -1 0 0
vn -1 0 0
vn -1 0 0
vn -1 0 0
vn -1 0 0
vn -1 0 0
vn -1 0 0
vn -4.16282e-16 -1 0
vn -4.16282e-16 -1 0
vn -4.16282e-16 -1 0
vn -4.16282e-16 -1 0
vn -2.08141e-16 1 0
vn -2.08141e-16 1 0
vn -2.08141e-16 1 0
vn -2.08141e-16 1 0
vn 0 0 1
vn 0 0 1
vn 0 0 1
vn 0 0 1
vn 0 -1 -1.0407e-16
vn 0 -1 -1.0407e-16
vn 0 -1 -1.0407e-16
vn 0 -1 -1.0407e-16
vn 0 1 7.28493e-16
vn 0 1 7.28493e-16
vn 0 1 7.28493e-16
vn 0 1 7.28493e-16
vt 0.256022 0.00722702
vt 0.414201 0.00722702
vt 0.256022 0.209584
vt 0.414201 0.211993
vt 0.246238 0.209584
vt 0.0880585 0.211993
vt 0.246238 0.00722702
vt 0.0880585 0.00722702
vt 0.177748 0.00722702
vt 0.335927 0.00722702
vt 0.177748 0.209584
vt 0.335927 0.211993
vt 0.167963 0.209584
vt 0.00978428 0.211993
vt 0.167963 0.00722702
vt 0.00978428 0.00722702
vt 0.177748 0.0132495
vt 0.335927 0.0132495
vt 0.177748 0.198743
vt 0.335927 0.198743
vt 0.167963 0.198743
vt 0.00978428 0.198743
vt 0.167963 0.0132495
vt 0.00978428 0.0132495
vt 0.423985 0.211993
vt 0 0.211993
vt 0.423985 0
vt 0 0
vt 0 0.211993
vt 0.345711 0.211993
vt 0.00978428 0.198743
vt 0.335927 0.198743
vt 0.00978428 0.0132495
vt 0.335927 0.0132495
vt 0 0
vt 0.345711 0
vt 0.0385441 0.211993
vt 0 0.211993
vt 0.0385441 8.23757e-17
vt 0 8.23757e-17
vt 0.423985 0.211993
vt 0.345711 0.211993
vt 0.423985 0
vt 0.345711 0
vt 0.385441 0.211993
vt 0.0385441 0.211993
vt 0.385441 8.23757e-17
vt 0.0385441 8.23757e-17
vt 0.0782742 0.211993
vt 0 0.211993
vt 0.0782742 8.23757e-17
vt 0 8.23757e-17
vt 0.423985 0.211993
vt 0.385441 0.211993
vt 0.423985 8.23757e-17
vt 0.385441 8.23757e-17
vt 0.423985 0.211993
vt 0.0782742 0.211993
vt 0.423985 0
vt 0.0782742 0
vt 0.423985 0.211993
vt 0.423985 0
vt 0.0782742 0.211993
vt 0.0782742 0.192721
vt 0.0782742 0.0192721
vt 0.0782742 0
vt 0 0.192721
vt 0 0.0192721
vt 0 0.211993
vt 0 0
vt 0.345711 0.211993
vt 0.345711 0.192721
vt 0.345711 0.0192721
vt 0.345711 0
vt 0.423985 0.192721
vt 0.423985 0.0192721
vt 0 0.198743
vt 0 0.0132495
vt 0.409531 0.198743
vt 0.409531 0.0132495
vt 0.423985 0.0132495
vt 0.423985 0.198743
vt 0.014454 0.0132495
vt 0.014454 0.198743
vt 0.167963 0.0132495
vt 0.177748 0.0132495
vt 0.167963 0.198743
vt 0.177748 0.198743
vt 0.004818 0.0132495
vt 0.409531 0.0132495
vt 0.004818 0.198743
vt 0.409531 0.198743
vt 0.014454 0.0132495
vt 0.419167 0.0132495
vt 0.014454 0.198743
vt 0.419167 0.198743
f 25/25/25 26/26/26 27/27/27 
f 26/26/26 28/28/28 27/27/27 
f 27/27/27 28/28/28 29/29/29 
f 28/28/28 30/30/30 29/29/29 
f 29/29/29 30/30/30 31/31/31 
f 30/30/30 32/32/32 31/31/31 
f 33/33/33 34/34/34 35/35/35 
f 34/34/34 36/36/36 35/35/35 
f 35/35/35 36/36/36 37/37/37 
f 36/36/36 38/38/38 37/37/37 
f 37/37/37 38/38/38 39/39/39 
f 38/38/38 40/40/40 39/39/39 
f 41/41/41 42/42/42 43/43/43 
f 42/42/42 44/44/44 43/43/43 
f 45/45/45 46/46/46 47/47/47 
f 46/46/46 48/48/48 47/47/47 
f 49/49/49 50/50/50 51/51/51 
f 50/50/50 52/52/52 51/51/51 
f 57/57/57 59/59/59 58/58/58 
f 59/59/59 60/60/60 58/58/58 
f 58/58/58 60/60/60 56/56/56 
f 60/60/60 54/54/54 56/56/56 
f 56/56/56 54/54/54 55/55/55 
f 54/54/54 53/53/53 55/55/55 
f 55/55/55 53/53/53 57/57/57 
f 53/53/53 59/59/59 57/57/57 
f 61/61/61 62/62/62 63/63/63 
f 62/62/62 64/64/64 63/63/63 
f 65/65/65 66/66/66 67/67/67 
f 66/66/66 68/68/68 67/67/67 
f 69/69/69 70/70/70 71/71/71 
f 70/70/70 72/72/72 71/71/71 
f 73/73/73 74/74/74 75/75/75 
f 74/74/74 76/76/76 75/75/75 
f 77/77/77 78/78/78 79/79/79 
f 78/78/78 80/80/80 79/79/79 
f 81/81/81 82/82/82 83/83/83 
f 82/82/82 84/84/84 83/83/83 
f 89/89/89 90/90/90 86/86/86 
f 85/85/85 87/87/87 88/88/88 
f 91/91/91 92/92/92 88/88/88 
f 92/92/92 89/89/89 88/88/88 
f 88/88/88 89/89/89 85/85/85 
f 89/89/89 86/86/86 85/85/85 
f 94/94/94 98/98/98 93/93/93 
f 98/98/98 97/97/97 93/93/93 
f 95/95/95 93/93/93 96/96/96 
f 93/93/93 97/97/97 96/96/96 
f 96/96/96 97/97/97 99/99/99 
f 97/97/97 100/100/100 99/99/99 
f 101/101/101 102/102/102 103/103/103 
f 102/102/102 104/104/104 103/103/103 
f 105/105/105 106/106/106 107/107/107 
f 106/106/106 108/108/108 107/107/107 
f 109/109/109 110/110/110 111/111/111 
f 110/110/110 112/112/112 111/111/111 
f 113/113/113 114/114/114 115/115/115 
f 114/114/114 116/116/116 115/115/115 
f 117/117/117 118/118/118 119/119/119 
f 118/118/118 120/120/120 119/119/119 
