# Generated By Simlab Soft 'www.simlab-soft.com' 
mtllib blpw_3636.mtl


g Body_1
usemtl texture1
v 0.9144 -4.44089e-16 0.79375
v 0.9144 0 0
v 0.9144 0.1524 0.79375
v 0.9144 0.8255 0
v 0.9144 0.1524 0.8636
v 0.9144 0.8255 0.8636
v 1.11982e-16 0.8255 0.9144
v 0 0.8255 0
v 1.11982e-16 0 0.9144
v 0 0 0
v 0.8636 0.1524 0.9144
v 0.8636 0.8255 0.9144
v 0.79375 0.1524 0.9144
v 1.11982e-16 0.8255 0.9144
v 0.79375 -2.22045e-16 0.9144
v 1.11982e-16 2.22045e-16 0.9144
v 0.8636 0.1524 0.8636
v 0.8636 0.8255 0.8636
v 0.8636 0.1524 0.9144
v 0.8636 0.8255 0.9144
v 0.9144 0.1524 0.8636
v 0.9144 0.8255 0.8636
v 0.8636 0.1524 0.8636
v 0.8636 0.8255 0.8636
v 0 0.8255 0
v 0.9144 0.8255 0
v 0 0 0
v 0.9144 0 0
v 0.9144 0.8255 0.8636
v 0.9144 0.8255 0
v 0.8636 0.8255 0.8636
v 0 0.8255 0
v 0.8636 0.8255 0.9144
v 1.11982e-16 0.8255 0.9144
v 0.79375 0 0.9144
v 1.11982e-16 0 0.9144
v 0.79375 0 0.79375
v 0 0 0
v 0.9144 0 0.79375
v 0.9144 0 0
v 0.9144 0.1524 0.79375
v 0.79375 0.1524 0.79375
v 0.9144 -4.44089e-16 0.79375
v 0.79375 -4.44089e-16 0.79375
v 0.79375 0.1524 0.79375
v 0.79375 0.1524 0.9144
v 0.79375 -8.88178e-16 0.79375
v 0.79375 -8.88178e-16 0.9144
v 0.8636 0.1524 0.9144
v 0.79375 0.1524 0.9144
v 0.8636 0.1524 0.8636
v 0.79375 0.1524 0.79375
v 0.9144 0.1524 0.8636
v 0.9144 0.1524 0.79375
vn 1 0 -1.28558e-16
vn 1 0 -1.28558e-16
vn 1 0 -1.28558e-16
vn 1 0 -1.28558e-16
vn 1 0 -1.28558e-16
vn 1 0 -1.28558e-16
vn -1 0 1.22465e-16
vn -1 0 1.22465e-16
vn -1 0 1.22465e-16
vn -1 0 1.22465e-16
vn 0 0 1
vn 0 0 1
vn 0 0 1
vn 0 0 1
vn 0 0 1
vn 0 0 1
vn 1 0 0
vn 1 0 0
vn 1 0 0
vn 1 0 0
vn 0 0 1
vn 0 0 1
vn 0 0 1
vn 0 0 1
vn 0 0 -1
vn 0 0 -1
vn 0 0 -1
vn 0 0 -1
vn 0 1 0
vn 0 1 0
vn 0 1 0
vn 0 1 0
vn 0 1 0
vn 0 1 0
vn 0 -1 0
vn 0 -1 0
vn 0 -1 0
vn 0 -1 0
vn 0 -1 0
vn 0 -1 0
vn 0 0 1
vn 0 0 1
vn 0 0 1
vn 0 0 1
vn 1 0 0
vn 1 0 0
vn 1 0 0
vn 1 0 0
vn 0 -1 0
vn 0 -1 0
vn 0 -1 0
vn 0 -1 0
vn 0 -1 0
vn 0 -1 0
vt 0.0445257 8.4297e-17
vt 0.337458 1.7796e-16
vt 0.0445257 0.03115
vt 0.337458 0.168729
vt 0.0187476 0.03115
vt 0.0187476 0.168729
vt 0.337458 0.168729
vt 0 0.168729
vt 0.337458 1.7796e-16
vt 0 1.7796e-16
vt 0.31871 0.03115
vt 0.31871 0.168729
vt 0.292932 0.03115
vt 3.74653e-17 0.168729
vt 0.292932 1.31129e-16
vt 3.74653e-17 2.24792e-16
vt 0.0187476 0.03115
vt 0.0187476 0.168729
vt 0 0.03115
vt 0 0.168729
vt 0.337458 0.03115
vt 0.337458 0.168729
vt 0.31871 0.03115
vt 0.31871 0.168729
vt 0.337458 0.168729
vt 0 0.168729
vt 0.337458 1.7796e-16
vt 0 1.7796e-16
vt 0.337458 0.00937382
vt 0.337458 0.168729
vt 0.31871 0.00937382
vt 0 0.168729
vt 0.31871 0
vt 3.74653e-17 0
vt 0.0445257 0
vt 0.337458 0
vt 0.0445257 0.0222628
vt 0.337458 0.168729
vt 0 0.0222628
vt 0 0.168729
vt 0.337458 0.03115
vt 0.292932 0.03115
vt 0.337458 8.4297e-17
vt 0.292932 8.4297e-17
vt 0.0445257 0.03115
vt 0 0.03115
vt 0.0445257 0
vt 0 0
vt 0.0187476 0
vt 0.0445257 0
vt 0.0187476 0.00937382
vt 0.0445257 0.0222628
vt 0 0.00937382
vt 0 0.0222628
f 1/1/1 2/2/2 3/3/3 
f 2/2/2 4/4/4 3/3/3 
f 3/3/3 4/4/4 5/5/5 
f 4/4/4 6/6/6 5/5/5 
f 7/7/7 8/8/8 9/9/9 
f 8/8/8 10/10/10 9/9/9 
f 11/11/11 12/12/12 13/13/13 
f 12/12/12 14/14/14 13/13/13 
f 13/13/13 14/14/14 15/15/15 
f 14/14/14 16/16/16 15/15/15 
f 17/17/17 18/18/18 19/19/19 
f 18/18/18 20/20/20 19/19/19 
f 21/21/21 22/22/22 23/23/23 
f 22/22/22 24/24/24 23/23/23 
f 25/25/25 26/26/26 27/27/27 
f 26/26/26 28/28/28 27/27/27 
f 29/29/29 30/30/30 31/31/31 
f 30/30/30 32/32/32 31/31/31 
f 31/31/31 32/32/32 33/33/33 
f 32/32/32 34/34/34 33/33/33 
f 35/35/35 36/36/36 37/37/37 
f 36/36/36 38/38/38 37/37/37 
f 37/37/37 38/38/38 39/39/39 
f 38/38/38 40/40/40 39/39/39 
f 41/41/41 42/42/42 43/43/43 
f 42/42/42 44/44/44 43/43/43 
f 45/45/45 46/46/46 47/47/47 
f 46/46/46 48/48/48 47/47/47 
f 49/49/49 50/50/50 51/51/51 
f 50/50/50 52/52/52 51/51/51 
f 51/51/51 52/52/52 53/53/53 
f 52/52/52 54/54/54 53/53/53 


g Body_2
usemtl texture
v 1.11982e-16 0.95885 0.9144
v 0 0.95885 0
v 1.11982e-16 0.8255 0.9144
v 0 0.8255 0
v 0.0127 0.95885 0.9144
v 1.11982e-16 0.95885 0.9144
v 0.0127 0.85725 0.9144
v 1.11982e-16 0.8255 0.9144
v 0.9144 0.85725 0.9144
v 0.9144 0.8255 0.9144
v 0.9144 0.85725 0.9144
v 0.9144 0.8255 0.9144
v 0.9144 0.85725 0.0127
v 0.9144 0.8255 0
v 0.9144 0.95885 0.0127
v 0.9144 0.95885 1.34798e-32
v 0 0.95885 0
v 0.9144 0.95885 0
v 0 0.8255 0
v 0.9144 0.8255 0
v 0.0127 0.85725 0.9144
v 0.9144 0.85725 0.9144
v 0.0127 0.85725 0.0127
v 0.9144 0.85725 0.0127
v 0.9144 0.8255 0
v 0.9144 0.8255 0.9144
v 0 0.8255 0
v 1.11982e-16 0.8255 0.9144
v 0.0127 0.95885 0.0127
v 0.0127 0.95885 0.9144
v 0.0127 0.85725 0.0127
v 0.0127 0.85725 0.9144
v 0.9144 0.95885 0.0127
v 0.0127 0.95885 0.0127
v 0.9144 0.85725 0.0127
v 0.0127 0.85725 0.0127
v 0.9144 0.95885 0.0127
v 0.9144 0.95885 0
v 0.0127 0.95885 0.0127
v 0 0.95885 0
v 0.0127 0.95885 0.9144
v 1.11982e-16 0.95885 0.9144
vn -1 0 1.22465e-16
vn -1 0 1.22465e-16
vn -1 0 1.22465e-16
vn -1 0 1.22465e-16
vn 0 0 1
vn 0 0 1
vn 0 0 1
vn 0 0 1
vn 0 0 1
vn 0 0 1
vn 1 0 -1.21415e-16
vn 1 0 -1.21415e-16
vn 1 0 -1.21415e-16
vn 1 0 -1.21415e-16
vn 1 0 -1.21415e-16
vn 1 0 -1.21415e-16
vn 0 0 -1
vn 0 0 -1
vn 0 0 -1
vn 0 0 -1
vn 0 1 0
vn 0 1 0
vn 0 1 0
vn 0 1 0
vn 0 -1 0
vn 0 -1 0
vn 0 -1 0
vn 0 -1 0
vn 1 0 -1.98155e-16
vn 1 0 -1.98155e-16
vn 1 0 -1.98155e-16
vn 1 0 -1.98155e-16
vn 1.19278e-16 0 1
vn 1.19278e-16 0 1
vn 1.19278e-16 0 1
vn 1.19278e-16 0 1
vn 0 1 0
vn 0 1 0
vn 0 1 0
vn 0 1 0
vn 0 1 0
vn 0 1 0
vt 0.328084 0.656168
vt 0 0.656168
vt 0.328084 0
vt 0 0
vt 0.00455672 0.656168
vt 3.64246e-17 0.656168
vt 0.00455672 0.15623
vt 3.64246e-17 0
vt 0.328084 0.15623
vt 0.328084 0
vt 0 0.15623
vt 0 0
vt 0.323527 0.15623
vt 0.328084 0
vt 0.323527 0.656168
vt 0.328084 0.656168
vt 0.328084 0.656168
vt 0 0.656168
vt 0.328084 0
vt 0 0
vt 0.00455672 0
vt 0.328084 0
vt 0.00455672 0.647055
vt 0.328084 0.647055
vt 0 0.656168
vt 0 0
vt 0.328084 0.656168
vt 0.328084 0
vt 0.323527 0.656168
vt 0 0.656168
vt 0.323527 0.15623
vt 0 0.15623
vt 0.328084 0.656168
vt 0.00455672 0.656168
vt 0.328084 0.15623
vt 0.00455672 0.15623
vt 0.328084 0.647055
vt 0.328084 0.656168
vt 0.00455672 0.647055
vt 0 0.656168
vt 0.00455672 0
vt 3.64246e-17 0
f 55/55/55 56/56/56 57/57/57 
f 56/56/56 58/58/58 57/57/57 
f 59/59/59 60/60/60 61/61/61 
f 60/60/60 62/62/62 61/61/61 
f 61/61/61 62/62/62 63/63/63 
f 62/62/62 64/64/64 63/63/63 
f 65/65/65 66/66/66 67/67/67 
f 66/66/66 68/68/68 67/67/67 
f 67/67/67 68/68/68 69/69/69 
f 68/68/68 70/70/70 69/69/69 
f 71/71/71 72/72/72 73/73/73 
f 72/72/72 74/74/74 73/73/73 
f 75/75/75 76/76/76 77/77/77 
f 76/76/76 78/78/78 77/77/77 
f 79/79/79 80/80/80 81/81/81 
f 80/80/80 82/82/82 81/81/81 
f 83/83/83 84/84/84 85/85/85 
f 84/84/84 86/86/86 85/85/85 
f 87/87/87 88/88/88 89/89/89 
f 88/88/88 90/90/90 89/89/89 
f 91/91/91 92/92/92 93/93/93 
f 92/92/92 94/94/94 93/93/93 
f 93/93/93 94/94/94 95/95/95 
f 94/94/94 96/96/96 95/95/95 
