# Generated By Simlab Soft 'www.simlab-soft.com' 
mtllib blsb_2424.mtl


g Body_1
usemtl texture1
v 0.6096 0.1524 0
v 0.6096 0.1524 0.0508
v 2.22045e-16 0.1524 0
v 2.22045e-16 0.1524 0.0508
v 0.6096 0.4445 -5.55112e-17
v 0.6096 0.1524 0
v 2.22045e-16 0.4445 -5.55112e-17
v 2.22045e-16 0.1524 0
v 0.6096 0.4445 0.3048
v 0.6096 0.4445 -5.55112e-17
v 0 0.4445 0.3048
v 0 0.4445 -5.55112e-17
v 0.6096 0.8255 0.3048
v 0.6096 0.4445 0.3048
v 2.22045e-16 0.8255 0.3048
v 2.22045e-16 0.4445 0.3048
v 0.6096 0.8255 0.5588
v 0.6096 0.8255 0.3048
v 2.22045e-16 0.8255 0.5588
v 2.22045e-16 0.8255 0.3048
v 0.6096 0.1524 0.5588
v 0.6096 0.8255 0.5588
v 0 0.1524 0.5588
v 0 0.8255 0.5588
v 0.6096 0.1524 0.508
v 0.6096 0.1524 0.5588
v 2.22045e-16 0.1524 0.508
v 2.22045e-16 0.1524 0.5588
v 0.6096 0 0.508
v 0.6096 0.1524 0.508
v 0 0 0.508
v 0 0.1524 0.508
v 0.6096 -3.08149e-33 0.0508
v 0.6096 0 0.508
v 2.22045e-16 -3.08149e-33 0.0508
v 2.22045e-16 0 0.508
v 0.6096 0.1524 0.0508
v 0.6096 0 0.0508
v 2.22045e-16 0.1524 0.0508
v 2.22045e-16 0 0.0508
v 0.6096 0.8255 0.5588
v 0.6096 0.8255 0.3048
v 0.6096 0.4445 0.3048
v 0.6096 0.4445 -5.55112e-17
v 0.6096 0.1524 0.5588
v 0.6096 0.1524 0.508
v 0.6096 0.1524 0.0508
v 0.6096 0.1524 0
v 0.6096 0 0.508
v 0.6096 -3.08149e-33 0.0508
v 0 0.8255 0.5588
v 0 0.8255 0.3048
v 0 0.4445 0.3048
v 0 0.4445 -5.55112e-17
v 0 0.1524 0.5588
v 0 0.1524 0.508
v 0 0.1524 0.0508
v 0 0.1524 0
v 0 0 0.508
v 0 -3.08149e-33 0.0508
vn 0 -1 2.18548e-15
vn 0 -1 2.18548e-15
vn 0 -1 2.18548e-15
vn 0 -1 2.18548e-15
vn 0 -1.90042e-16 -1
vn 0 -1.90042e-16 -1
vn 0 -1.90042e-16 -1
vn 0 -1.90042e-16 -1
vn 0 1 0
vn 0 1 0
vn 0 1 0
vn 0 1 0
vn 0 1.45699e-16 -1
vn 0 1.45699e-16 -1
vn 0 1.45699e-16 -1
vn 0 1.45699e-16 -1
vn 0 1 4.37096e-16
vn 0 1 4.37096e-16
vn 0 1 4.37096e-16
vn 0 1 4.37096e-16
vn 0 0 1
vn 0 0 1
vn 0 0 1
vn 0 0 1
vn 0 -1 0
vn 0 -1 0
vn 0 -1 0
vn 0 -1 0
vn 0 0 1
vn 0 0 1
vn 0 0 1
vn 0 0 1
vn 0 -1 6.73991e-33
vn 0 -1 6.73991e-33
vn 0 -1 6.73991e-33
vn 0 -1 6.73991e-33
vn 0 1.82123e-16 -1
vn 0 1.82123e-16 -1
vn 0 1.82123e-16 -1
vn 0 1.82123e-16 -1
vn 1 0 0
vn 1 0 0
vn 1 0 0
vn 1 0 0
vn 1 0 0
vn 1 0 0
vn 1 0 0
vn 1 0 0
vn 1 0 0
vn 1 0 0
vn -1 0 0
vn -1 0 0
vn -1 0 0
vn -1 0 0
vn -1 0 0
vn -1 0 0
vn -1 0 0
vn -1 0 0
vn -1 0 0
vn -1 0 0
vt 0.423985 2.35359e-17
vt 0.423985 0.0192721
vt 1.64751e-16 2.35359e-17
vt 1.64751e-16 0.0192721
vt 0.195686 0
vt 0.345711 0
vt 0.195686 0.211993
vt 0.345711 0.211993
vt 0 0.115632
vt 0 0
vt 0.423985 0.115632
vt 0.423985 0
vt 0 0
vt 0.195686 0
vt 0 0.211993
vt 0.195686 0.211993
vt 0 0.211993
vt 0 0.115632
vt 0.423985 0.211993
vt 0.423985 0.115632
vt 0.0782742 0
vt 0.423985 0
vt 0.0782742 0.211993
vt 0.423985 0.211993
vt 0.423985 0.192721
vt 0.423985 0.211993
vt 1.64751e-16 0.192721
vt 1.64751e-16 0.211993
vt 0 0
vt 0.0782742 0
vt 0 0.211993
vt 0.0782742 0.211993
vt 0.423985 0.0192721
vt 0.423985 0.192721
vt 1.64751e-16 0.0192721
vt 1.64751e-16 0.192721
vt 0.345711 0
vt 0.423985 0
vt 0.345711 0.211993
vt 0.423985 0.211993
vt 0.423985 0.211993
vt 0.423985 0.115632
vt 0.2283 0.115632
vt 0.2283 0
vt 0.0782742 0.211993
vt 0.0782742 0.192721
vt 0.0782742 0.0192721
vt 0.0782742 2.35359e-17
vt 0 0.192721
vt 0 0.0192721
vt 0 0.211993
vt 0 0.115632
vt 0.195686 0.115632
vt 0.195686 0
vt 0.345711 0.211993
vt 0.345711 0.192721
vt 0.345711 0.0192721
vt 0.345711 2.35359e-17
vt 0.423985 0.192721
vt 0.423985 0.0192721
f 1/1/1 2/2/2 3/3/3 
f 2/2/2 4/4/4 3/3/3 
f 5/5/5 6/6/6 7/7/7 
f 6/6/6 8/8/8 7/7/7 
f 9/9/9 10/10/10 11/11/11 
f 10/10/10 12/12/12 11/11/11 
f 13/13/13 14/14/14 15/15/15 
f 14/14/14 16/16/16 15/15/15 
f 17/17/17 18/18/18 19/19/19 
f 18/18/18 20/20/20 19/19/19 
f 21/21/21 22/22/22 23/23/23 
f 22/22/22 24/24/24 23/23/23 
f 25/25/25 26/26/26 27/27/27 
f 26/26/26 28/28/28 27/27/27 
f 29/29/29 30/30/30 31/31/31 
f 30/30/30 32/32/32 31/31/31 
f 33/33/33 34/34/34 35/35/35 
f 34/34/34 36/36/36 35/35/35 
f 37/37/37 38/38/38 39/39/39 
f 38/38/38 40/40/40 39/39/39 
f 45/45/45 46/46/46 41/41/41 
f 46/46/46 43/43/43 41/41/41 
f 41/41/41 43/43/43 42/42/42 
f 48/48/48 44/44/44 47/47/47 
f 44/44/44 43/43/43 47/47/47 
f 47/47/47 43/43/43 50/50/50 
f 43/43/43 46/46/46 50/50/50 
f 50/50/50 46/46/46 49/49/49 
f 54/54/54 58/58/58 53/53/53 
f 58/58/58 57/57/57 53/53/53 
f 60/60/60 59/59/59 56/56/56 
f 51/51/51 52/52/52 53/53/53 
f 60/60/60 56/56/56 57/57/57 
f 57/57/57 56/56/56 53/53/53 
f 56/56/56 55/55/55 53/53/53 
f 53/53/53 55/55/55 51/51/51 


g Body_2
usemtl texture
v 7.46545e-17 0.85725 0.5842
v 3.73272e-17 0.85725 0.2794
v 7.46545e-17 0.8255 0.5842
v 3.73272e-17 0.8255 0.2794
v 0.6096 0.85725 0.5842
v 7.46545e-17 0.85725 0.5842
v 0.6096 0.8255 0.5842
v 7.46545e-17 0.8255 0.5842
v 0.6096 0.85725 0.2794
v 0.6096 0.85725 0.5842
v 0.6096 0.8255 0.2794
v 0.6096 0.8255 0.5842
v 3.73272e-17 0.85725 0.2794
v 0.6096 0.85725 0.2794
v 3.73272e-17 0.8255 0.2794
v 0.6096 0.8255 0.2794
v 0.6096 0.85725 0.5842
v 0.6096 0.85725 0.2794
v 7.46545e-17 0.85725 0.5842
v 3.73272e-17 0.85725 0.2794
v 0.6096 0.8255 0.2794
v 0.6096 0.8255 0.5842
v 3.73272e-17 0.8255 0.2794
v 7.46545e-17 0.8255 0.5842
vn -1 0 1.22465e-16
vn -1 0 1.22465e-16
vn -1 0 1.22465e-16
vn -1 0 1.22465e-16
vn 0 0 1
vn 0 0 1
vn 0 0 1
vn 0 0 1
vn 1 0 0
vn 1 0 0
vn 1 0 0
vn 1 0 0
vn 0 0 -1
vn 0 0 -1
vn 0 0 -1
vn 0 0 -1
vn 0 1 0
vn 0 1 0
vn 0 1 0
vn 0 1 0
vn 0 -1 0
vn 0 -1 0
vn 0 -1 0
vn 0 -1 0
vt 0.656168 1.31234
vt -7.28493e-17 1.31234
vt 0.656168 0
vt -7.28493e-17 0
vt 0.656168 1.31234
vt 0 1.31234
vt 0.656168 0
vt 0 0
vt 0.656168 1.31234
vt 0 1.31234
vt 0.656168 0
vt 0 0
vt 0.656168 1.31234
vt 7.28493e-17 1.31234
vt 0.656168 0
vt 7.28493e-17 0
vt 0.656168 0
vt 0.656168 1.31234
vt 0 0
vt 0 1.31234
vt 7.28493e-17 1.31234
vt 7.28493e-17 0
vt 0.656168 1.31234
vt 0.656168 0
f 61/61/61 62/62/62 63/63/63 
f 62/62/62 64/64/64 63/63/63 
f 65/65/65 66/66/66 67/67/67 
f 66/66/66 68/68/68 67/67/67 
f 69/69/69 70/70/70 71/71/71 
f 70/70/70 72/72/72 71/71/71 
f 73/73/73 74/74/74 75/75/75 
f 74/74/74 76/76/76 75/75/75 
f 77/77/77 78/78/78 79/79/79 
f 78/78/78 80/80/80 79/79/79 
f 81/81/81 82/82/82 83/83/83 
f 82/82/82 84/84/84 83/83/83 
