# Generated By Simlab Soft 'www.simlab-soft.com' 
mtllib blfl_2430.mtl


g Body_1
usemtl texture
v 9.33181e-17 0.65405 0.7366
v 0 0.65405 -0.0254
v 9.33181e-17 0.6223 0.7366
v 0 0.6223 -0.0254
v 0.6096 0.65405 0.7366
v 9.33181e-17 0.65405 0.7366
v 0.6096 0.6223 0.7366
v 9.33181e-17 0.6223 0.7366
v 0.6096 0.65405 -0.0254
v 0.6096 0.65405 0.7366
v 0.6096 0.6223 -0.0254
v 0.6096 0.6223 0.7366
v 0 0.65405 -0.0254
v 0.6096 0.65405 -0.0254
v 0 0.6223 -0.0254
v 0.6096 0.6223 -0.0254
v 0.6096 0.65405 0.7366
v 0.6096 0.65405 -0.0254
v 9.33181e-17 0.65405 0.7366
v 0 0.65405 -0.0254
v 0.6096 0.6223 -0.0254
v 0.6096 0.6223 0.7366
v 0 0.6223 -0.0254
v 9.33181e-17 0.6223 0.7366
vn -1 0 1.22465e-16
vn -1 0 1.22465e-16
vn -1 0 1.22465e-16
vn -1 0 1.22465e-16
vn 0 0 1
vn 0 0 1
vn 0 0 1
vn 0 0 1
vn 1 0 0
vn 1 0 0
vn 1 0 0
vn 1 0 0
vn 4.55308e-17 0 -1
vn 4.55308e-17 0 -1
vn 4.55308e-17 0 -1
vn 4.55308e-17 0 -1
vn 0 1 0
vn 0 1 0
vn 0 1 0
vn 0 1 0
vn 0 -1 0
vn 0 -1 0
vn 0 -1 0
vn 0 -1 0
vt 0.590551 1.1811
vt 0 1.1811
vt 0.590551 0
vt 0 0
vt 0.590551 1.1811
vt 9.83465e-17 1.1811
vt 0.590551 0
vt 9.83465e-17 0
vt 0.590551 1.1811
vt 3.27822e-17 1.1811
vt 0.590551 0
vt 3.27822e-17 0
vt 0.590551 1.1811
vt 0 1.1811
vt 0.590551 0
vt 0 0
vt 0.590551 1.1811
vt 0 1.1811
vt 0.590551 1.96693e-16
vt 0 0
vt 0.590551 1.1811
vt 3.27822e-17 1.1811
vt 0.590551 0
vt 3.27822e-17 1.96693e-16
f 1/1/1 2/2/2 3/3/3 
f 2/2/2 4/4/4 3/3/3 
f 5/5/5 6/6/6 7/7/7 
f 6/6/6 8/8/8 7/7/7 
f 9/9/9 10/10/10 11/11/11 
f 10/10/10 12/12/12 11/11/11 
f 13/13/13 14/14/14 15/15/15 
f 14/14/14 16/16/16 15/15/15 
f 17/17/17 18/18/18 19/19/19 
f 18/18/18 20/20/20 19/19/19 
f 21/21/21 22/22/22 23/23/23 
f 22/22/22 24/24/24 23/23/23 


g Body_2
usemtl texture1
v 0.6096 0.6223 0.7112
v 0.6096 0.6223 2.22045e-16
v 2.22045e-16 0.6223 0.7112
v 2.22045e-16 0.6223 2.22045e-16
v 0.6096 0.6223 0.7112
v 0.6096 0.1524 0.7112
v 0.59055 0.60325 0.7112
v 0.59055 0.17145 0.7112
v 0.01905 0.60325 0.7112
v 0.01905 0.17145 0.7112
v 0 0.6223 0.7112
v 0 0.1524 0.7112
v 0.6096 0.1524 0.6604
v 0.6096 0.1524 0.7112
v 2.22045e-16 0.1524 0.6604
v 2.22045e-16 0.1524 0.7112
v 0.6096 0 0.6604
v 0.6096 0.1524 0.6604
v 0 0 0.6604
v 0 0.1524 0.6604
v 0.6096 -3.08149e-33 0.0508
v 0.6096 0 0.6604
v 2.22045e-16 -3.08149e-33 0.0508
v 2.22045e-16 0 0.6604
v 0.6096 0.1524 0.0508
v 0.6096 0 0.0508
v 2.22045e-16 0.1524 0.0508
v 2.22045e-16 0 0.0508
v 0.6096 0.1524 0
v 0.6096 0.1524 0.0508
v 2.22045e-16 0.1524 0
v 2.22045e-16 0.1524 0.0508
v 0.6096 0.6223 2.22045e-16
v 0.6096 0.1524 0
v 0 0.6223 2.22045e-16
v 0 0.1524 0
v 0.6096 0.6223 0.7112
v 0.6096 0.6223 2.22045e-16
v 0.6096 0.1524 0.7112
v 0.6096 0.1524 0.6604
v 0.6096 0.1524 0.0508
v 0.6096 0.1524 0
v 0.6096 0 0.6604
v 0.6096 -3.08149e-33 0.0508
v 0 0.6223 0.7112
v 0 0.6223 2.22045e-16
v 0 0.1524 0.7112
v 0 0.1524 0.6604
v 0 0.1524 0.0508
v 0 0.1524 0
v 0 0 0.6604
v 0 -3.08149e-33 0.0508
v 0.01905 0.60325 0.7112
v 0.01905 0.17145 0.7112
v 0.01905 0.60325 0.01905
v 0.01905 0.17145 0.01905
v 0.59055 0.60325 0.7112
v 0.01905 0.60325 0.7112
v 0.59055 0.60325 0.01905
v 0.01905 0.60325 0.01905
v 0.59055 0.17145 0.7112
v 0.59055 0.60325 0.7112
v 0.59055 0.17145 0.01905
v 0.59055 0.60325 0.01905
v 0.01905 0.17145 0.7112
v 0.59055 0.17145 0.7112
v 0.01905 0.17145 0.01905
v 0.59055 0.17145 0.01905
v 0.59055 0.17145 0.01905
v 0.59055 0.60325 0.01905
v 0.01905 0.17145 0.01905
v 0.01905 0.60325 0.01905
vn 0 1 3.12211e-16
vn 0 1 3.12211e-16
vn 0 1 3.12211e-16
vn 0 1 3.12211e-16
vn 0 -4.72536e-16 1
vn 0 -4.72536e-16 1
vn 0 -4.72536e-16 1
vn 0 -4.72536e-16 1
vn 0 -4.72536e-16 1
vn 0 -4.72536e-16 1
vn 0 -4.72536e-16 1
vn 0 -4.72536e-16 1
vn 0 -1 5.4637e-16
vn 0 -1 5.4637e-16
vn 0 -1 5.4637e-16
vn 0 -1 5.4637e-16
vn 0 0 1
vn 0 0 1
vn 0 0 1
vn 0 0 1
vn 0 -1 5.05493e-33
vn 0 -1 5.05493e-33
vn 0 -1 5.05493e-33
vn 0 -1 5.05493e-33
vn 0 1.82123e-16 -1
vn 0 1.82123e-16 -1
vn 0 1.82123e-16 -1
vn 0 1.82123e-16 -1
vn 0 -1 2.18548e-15
vn 0 -1 2.18548e-15
vn 0 -1 2.18548e-15
vn 0 -1 2.18548e-15
vn 0 4.72536e-16 -1
vn 0 4.72536e-16 -1
vn 0 4.72536e-16 -1
vn 0 4.72536e-16 -1
vn 1 0 0
vn 1 0 0
vn 1 0 0
vn 1 0 0
vn 1 0 0
vn 1 0 0
vn 1 0 0
vn 1 0 0
vn -1 0 0
vn -1 0 0
vn -1 0 0
vn -1 0 0
vn -1 0 0
vn -1 0 0
vn -1 0 0
vn -1 0 0
vn 1 0 0
vn 1 0 0
vn 1 0 0
vn 1 0 0
vn 0 -1 0
vn 0 -1 0
vn 0 -1 0
vn 0 -1 0
vn -1 0 0
vn -1 0 0
vn -1 0 0
vn -1 0 0
vn -4.85662e-16 1 0
vn -4.85662e-16 1 0
vn -4.85662e-16 1 0
vn -4.85662e-16 1 0
vn 0 -4.72536e-16 1
vn 0 -4.72536e-16 1
vn 0 -4.72536e-16 1
vn 0 -4.72536e-16 1
vt 0.423985 0.211993
vt 1.41216e-16 0.211993
vt 0.423985 8.23757e-17
vt 1.41216e-16 8.23757e-17
vt 0 0.211993
vt 0.320152 0.211993
vt 0.0129791 0.205368
vt 0.307173 0.205368
vt 0.0129791 0.00662477
vt 0.307173 0.00662477
vt 0 0
vt 0.320152 0
vt 0.0302847 0.211993
vt 0 0.211993
vt 0.0302847 8.23757e-17
vt 0 8.23757e-17
vt 0.423985 0.211993
vt 0.320152 0.211993
vt 0.423985 0
vt 0.320152 0
vt 0.393701 0.211993
vt 0.0302847 0.211993
vt 0.393701 8.23757e-17
vt 0.0302847 8.23757e-17
vt 0.103833 0.211993
vt 0 0.211993
vt 0.103833 8.23757e-17
vt 0 8.23757e-17
vt 0.423985 0.211993
vt 0.393701 0.211993
vt 0.423985 8.23757e-17
vt 0.393701 8.23757e-17
vt 0.423985 0.211993
vt 0.103833 0.211993
vt 0.423985 0
vt 0.103833 0
vt 0.423985 0
vt 1.41216e-16 0
vt 0.423985 0.160076
vt 0.393701 0.160076
vt 0.0302847 0.160076
vt 0 0.160076
vt 0.393701 0.211993
vt 0.0302847 0.211993
vt 0 0
vt 0.423985 0
vt 0 0.160076
vt 0.0302847 0.160076
vt 0.393701 0.160076
vt 0.423985 0.160076
vt 0.0302847 0.211993
vt 0.393701 0.211993
vt 0.423985 0.00648957
vt 0.423985 0.153587
vt 0.0113568 0.00648957
vt 0.0113568 0.153587
vt 0 0.205368
vt 0 0.00662477
vt 0.412629 0.205368
vt 0.412629 0.00662477
vt 0 0.153587
vt 0 0.00648957
vt 0.412629 0.153587
vt 0.412629 0.00648957
vt 0.423985 0.00662477
vt 0.423985 0.205368
vt 0.0113568 0.00662477
vt 0.0113568 0.205368
vt 0.307173 0.205368
vt 0.0129791 0.205368
vt 0.307173 0.00662477
vt 0.0129791 0.00662477
f 25/25/25 26/26/26 27/27/27 
f 26/26/26 28/28/28 27/27/27 
f 32/32/32 30/30/30 31/31/31 
f 30/30/30 29/29/29 31/31/31 
f 31/31/31 29/29/29 33/33/33 
f 29/29/29 35/35/35 33/33/33 
f 33/33/33 35/35/35 34/34/34 
f 35/35/35 36/36/36 34/34/34 
f 34/34/34 36/36/36 32/32/32 
f 36/36/36 30/30/30 32/32/32 
f 37/37/37 38/38/38 39/39/39 
f 38/38/38 40/40/40 39/39/39 
f 41/41/41 42/42/42 43/43/43 
f 42/42/42 44/44/44 43/43/43 
f 45/45/45 46/46/46 47/47/47 
f 46/46/46 48/48/48 47/47/47 
f 49/49/49 50/50/50 51/51/51 
f 50/50/50 52/52/52 51/51/51 
f 53/53/53 54/54/54 55/55/55 
f 54/54/54 56/56/56 55/55/55 
f 57/57/57 58/58/58 59/59/59 
f 58/58/58 60/60/60 59/59/59 
f 65/65/65 66/66/66 62/62/62 
f 61/61/61 63/63/63 64/64/64 
f 67/67/67 68/68/68 64/64/64 
f 68/68/68 65/65/65 64/64/64 
f 64/64/64 65/65/65 61/61/61 
f 65/65/65 62/62/62 61/61/61 
f 70/70/70 74/74/74 69/69/69 
f 74/74/74 73/73/73 69/69/69 
f 71/71/71 69/69/69 72/72/72 
f 69/69/69 73/73/73 72/72/72 
f 72/72/72 73/73/73 75/75/75 
f 73/73/73 76/76/76 75/75/75 
f 77/77/77 78/78/78 79/79/79 
f 78/78/78 80/80/80 79/79/79 
f 81/81/81 82/82/82 83/83/83 
f 82/82/82 84/84/84 83/83/83 
f 85/85/85 86/86/86 87/87/87 
f 86/86/86 88/88/88 87/87/87 
f 89/89/89 90/90/90 91/91/91 
f 90/90/90 92/92/92 91/91/91 
f 93/93/93 94/94/94 95/95/95 
f 94/94/94 96/96/96 95/95/95 
